<svg id="svg" version="1.1" xmlns="http://www.w3.org/2000/svg" xmlns:xlink="http://www.w3.org/1999/xlink" width="400" height="400" viewBox="0, 0, 400,400"><g id="svgg"><path id="path0" d="M172.400 137.976 C 172.400 138.403,172.220 138.864,172.000 139.000 C 171.780 139.136,171.600 139.867,171.600 140.624 C 171.600 141.381,171.420 142.000,171.200 142.000 C 170.980 142.000,170.800 142.439,170.800 142.976 C 170.800 143.513,170.620 144.064,170.400 144.200 C 170.180 144.336,170.000 144.761,170.000 145.144 C 170.000 146.019,169.101 147.993,168.700 147.997 C 168.535 147.999,168.400 148.349,168.400 148.776 C 168.400 149.203,168.220 149.664,168.000 149.800 C 167.780 149.936,167.600 150.407,167.600 150.847 C 167.600 151.287,167.420 151.536,167.200 151.400 C 166.980 151.264,166.800 151.523,166.800 151.976 C 166.800 152.429,166.620 152.800,166.400 152.800 C 166.180 152.800,166.000 153.160,166.000 153.600 C 166.000 154.040,165.820 154.400,165.600 154.400 C 165.380 154.400,165.200 154.760,165.200 155.200 C 165.200 155.640,165.050 156.000,164.868 156.000 C 164.685 156.000,164.282 156.495,163.973 157.100 C 163.351 158.315,161.595 160.667,159.900 162.554 C 159.295 163.227,158.800 163.909,158.800 164.070 C 158.800 164.502,153.300 170.000,152.868 170.000 C 152.663 170.000,151.755 170.720,150.848 171.600 C 149.941 172.480,149.019 173.200,148.800 173.200 C 148.580 173.200,148.400 173.380,148.400 173.600 C 148.400 173.820,148.212 174.000,147.983 174.000 C 147.754 174.000,147.208 174.334,146.770 174.742 C 146.332 175.150,145.261 175.825,144.391 176.242 C 143.521 176.659,142.807 177.135,142.805 177.300 C 142.802 177.465,142.440 177.600,142.000 177.600 C 141.560 177.600,141.200 177.780,141.200 178.000 C 141.200 178.220,140.840 178.400,140.400 178.400 C 139.960 178.400,139.600 178.580,139.600 178.800 C 139.600 179.020,139.240 179.200,138.800 179.200 C 138.360 179.200,137.999 179.335,137.997 179.500 C 137.993 179.901,136.019 180.800,135.144 180.800 C 134.761 180.800,134.336 180.980,134.200 181.200 C 134.064 181.420,133.603 181.600,133.176 181.600 C 132.749 181.600,132.400 181.780,132.400 182.000 C 132.400 182.220,131.849 182.400,131.176 182.400 C 130.463 182.400,130.056 182.567,130.200 182.800 C 130.349 183.041,129.815 183.200,128.857 183.200 C 127.982 183.200,127.207 183.371,127.133 183.580 C 127.060 183.789,126.223 184.005,125.274 184.060 C 124.325 184.115,123.460 184.304,123.351 184.480 C 123.242 184.656,122.073 184.800,120.753 184.800 C 119.255 184.800,118.446 184.950,118.600 185.200 C 118.761 185.460,116.679 185.600,112.647 185.600 C 108.945 185.600,106.348 185.439,106.200 185.200 C 106.064 184.980,104.894 184.800,103.600 184.800 C 102.306 184.800,101.136 184.620,101.000 184.400 C 100.864 184.180,99.953 184.000,98.976 184.000 C 97.999 184.000,97.200 183.820,97.200 183.600 C 97.200 183.380,96.671 183.200,96.024 183.200 C 95.377 183.200,94.736 183.020,94.600 182.800 C 94.464 182.580,93.924 182.400,93.400 182.400 C 92.876 182.400,92.336 182.220,92.200 182.000 C 92.064 181.780,91.513 181.600,90.976 181.600 C 90.439 181.600,90.000 181.420,90.000 181.200 C 90.000 180.980,89.728 180.800,89.395 180.800 C 89.062 180.800,88.477 180.632,88.095 180.426 C 87.713 180.221,86.815 179.817,86.100 179.529 C 85.385 179.240,84.800 178.858,84.800 178.679 C 84.800 178.499,84.635 178.455,84.432 178.580 C 84.230 178.705,83.780 178.523,83.432 178.175 C 83.085 177.827,82.800 177.659,82.800 177.800 C 82.800 177.941,82.515 177.773,82.168 177.425 C 81.820 177.077,81.370 176.895,81.168 177.020 C 80.965 177.145,80.800 177.078,80.800 176.872 C 80.800 176.666,80.260 176.273,79.600 176.000 C 78.940 175.727,78.400 175.345,78.400 175.151 C 78.400 174.958,78.112 174.800,77.760 174.800 C 77.409 174.800,76.617 174.260,76.000 173.600 C 75.383 172.940,74.774 172.400,74.646 172.400 C 74.349 172.400,70.774 169.106,68.708 166.927 C 66.891 165.012,66.502 165.036,64.136 167.212 C 61.886 169.280,59.602 171.021,57.900 171.967 C 57.075 172.425,55.776 173.154,55.014 173.586 C 49.168 176.898,39.895 178.189,30.864 176.948 L 29.127 176.709 29.389 179.055 C 29.533 180.345,29.744 182.480,29.859 183.800 C 29.974 185.120,30.232 186.371,30.434 186.580 C 30.635 186.789,30.800 188.083,30.800 189.456 C 30.800 190.829,30.980 192.064,31.200 192.200 C 31.420 192.336,31.600 193.416,31.600 194.600 C 31.600 195.784,31.780 196.864,32.000 197.000 C 32.220 197.136,32.400 198.126,32.400 199.200 C 32.400 200.274,32.580 201.264,32.800 201.400 C 33.020 201.536,33.200 202.501,33.200 203.544 C 33.200 204.587,33.370 205.611,33.579 205.820 C 33.787 206.029,34.002 206.965,34.057 207.900 C 34.112 208.835,34.301 209.600,34.478 209.600 C 34.655 209.600,34.800 210.511,34.800 211.624 C 34.800 212.871,34.953 213.552,35.200 213.400 C 35.448 213.247,35.600 213.996,35.600 215.376 C 35.600 216.599,35.780 217.600,36.000 217.600 C 36.220 217.600,36.400 218.320,36.400 219.200 C 36.400 220.080,36.580 220.800,36.800 220.800 C 37.020 220.800,37.200 221.520,37.200 222.400 C 37.200 223.280,37.380 224.000,37.600 224.000 C 37.820 224.000,38.000 224.619,38.000 225.376 C 38.000 226.133,38.180 226.864,38.400 227.000 C 38.620 227.136,38.800 227.867,38.800 228.624 C 38.800 229.381,38.980 230.000,39.200 230.000 C 39.420 230.000,39.600 230.720,39.600 231.600 C 39.600 232.480,39.780 233.200,40.000 233.200 C 40.220 233.200,40.400 233.830,40.400 234.600 C 40.400 235.370,40.580 236.000,40.800 236.000 C 41.020 236.000,41.200 236.529,41.200 237.176 C 41.200 237.823,41.380 238.464,41.600 238.600 C 41.820 238.736,42.000 239.287,42.000 239.824 C 42.000 240.361,42.163 240.800,42.363 240.800 C 42.562 240.800,42.642 241.119,42.539 241.510 C 42.437 241.900,42.620 242.733,42.945 243.360 C 43.271 243.987,43.442 244.747,43.326 245.050 C 43.209 245.352,43.314 245.600,43.557 245.600 C 43.801 245.600,44.000 246.140,44.000 246.800 C 44.000 247.460,44.180 248.000,44.400 248.000 C 44.620 248.000,44.800 248.439,44.800 248.976 C 44.800 249.513,44.980 250.064,45.200 250.200 C 45.420 250.336,45.600 250.799,45.600 251.229 C 45.600 251.659,45.759 252.323,45.953 252.705 C 46.148 253.087,46.484 253.850,46.700 254.400 C 47.389 256.154,48.083 257.779,48.447 258.495 C 48.641 258.877,48.800 259.462,48.800 259.795 C 48.800 260.128,48.980 260.400,49.200 260.400 C 49.420 260.400,49.600 260.760,49.600 261.200 C 49.600 261.640,49.780 262.000,50.000 262.000 C 50.220 262.000,50.400 262.540,50.400 263.200 C 50.400 263.860,50.580 264.400,50.800 264.400 C 51.020 264.400,51.200 264.683,51.200 265.029 C 51.200 265.374,51.472 265.929,51.804 266.261 C 52.136 266.593,52.305 267.030,52.180 267.232 C 52.055 267.435,52.143 267.600,52.376 267.600 C 52.609 267.600,52.800 267.960,52.800 268.400 C 52.800 268.840,52.980 269.200,53.200 269.200 C 53.420 269.200,53.600 269.560,53.600 270.000 C 53.600 270.440,53.780 270.800,54.000 270.800 C 54.220 270.800,54.400 271.078,54.400 271.417 C 54.400 271.756,54.760 272.420,55.200 272.892 C 55.640 273.364,56.000 273.994,56.000 274.292 C 56.000 274.590,56.360 275.220,56.800 275.692 C 57.240 276.164,57.600 276.787,57.600 277.075 C 57.600 277.364,57.780 277.600,58.000 277.600 C 58.220 277.600,58.400 277.849,58.400 278.154 C 58.400 279.132,59.380 280.609,60.000 280.565 C 60.330 280.541,91.965 280.494,130.300 280.461 L 200.000 280.400 199.994 214.700 C 199.991 178.565,199.856 148.802,199.694 148.560 C 199.532 148.318,197.923 147.999,196.117 147.852 C 188.717 147.248,180.398 143.632,174.699 138.541 C 172.986 137.011,172.400 136.867,172.400 137.976 M330.400 167.800 C 329.654 168.570,329.167 169.200,329.318 169.200 C 329.591 169.200,332.000 166.811,332.000 166.541 C 332.000 166.224,331.693 166.466,330.400 167.800 " stroke="none" fill="#fcf483" fill-rule="evenodd"></path><path id="path1" d="M192.631 72.049 C 192.750 72.242,192.037 72.400,191.047 72.400 C 190.057 72.400,189.136 72.580,189.000 72.800 C 188.864 73.020,188.313 73.200,187.776 73.200 C 187.239 73.200,186.800 73.380,186.800 73.600 C 186.800 73.820,186.476 74.000,186.080 74.000 C 185.186 74.000,183.207 74.894,183.203 75.300 C 183.201 75.465,182.790 75.600,182.288 75.600 C 181.787 75.600,181.124 75.950,180.815 76.379 C 180.507 76.807,180.122 77.075,179.959 76.975 C 179.797 76.875,179.380 77.077,179.032 77.425 C 178.685 77.773,178.400 77.928,178.400 77.770 C 178.400 77.612,177.940 77.979,177.378 78.586 C 176.816 79.193,176.260 79.594,176.144 79.477 C 175.923 79.256,169.200 85.839,169.200 86.276 C 169.200 86.413,168.741 87.126,168.180 87.862 C 167.618 88.598,167.286 89.200,167.441 89.200 C 167.596 89.200,167.335 89.536,166.861 89.947 C 166.388 90.358,166.000 90.988,166.000 91.347 C 166.000 91.706,165.820 92.000,165.600 92.000 C 165.380 92.000,165.243 92.135,165.295 92.300 C 165.440 92.756,164.346 95.200,163.997 95.200 C 163.829 95.200,163.599 95.695,163.486 96.300 C 163.373 96.905,163.158 97.850,163.008 98.400 C 162.858 98.950,162.720 99.625,162.701 99.900 C 162.682 100.175,162.522 100.400,162.346 100.400 C 162.169 100.400,162.028 100.985,162.033 101.700 C 162.042 103.153,161.896 104.006,161.534 104.600 C 161.124 105.275,161.414 115.748,161.867 116.600 C 162.101 117.040,162.208 117.634,162.106 117.920 C 162.004 118.207,162.127 118.940,162.379 119.550 C 162.632 120.161,162.869 121.052,162.905 121.530 C 162.941 122.009,163.112 122.400,163.285 122.400 C 163.458 122.400,163.600 122.568,163.600 122.774 C 163.600 122.980,163.810 123.655,164.066 124.274 C 164.323 124.893,164.557 125.490,164.586 125.600 C 164.847 126.579,165.354 127.837,165.554 128.000 C 165.915 128.293,166.734 129.630,167.393 131.000 C 167.711 131.660,168.472 132.759,169.085 133.443 C 169.698 134.127,170.617 135.232,171.126 135.899 C 171.710 136.664,172.307 137.045,172.743 136.931 C 173.143 136.826,174.018 137.272,174.817 137.988 C 175.578 138.669,176.695 139.529,177.300 139.899 C 177.905 140.270,178.400 140.714,178.400 140.886 C 178.400 141.059,178.670 141.200,179.000 141.200 C 179.330 141.200,179.601 141.335,179.603 141.500 C 179.605 141.665,180.010 141.998,180.503 142.240 C 180.996 142.483,182.210 143.093,183.200 143.597 C 187.671 145.874,194.064 147.600,198.024 147.600 L 199.800 147.600 199.696 109.584 L 199.592 71.568 196.003 71.634 C 194.029 71.670,192.511 71.857,192.631 72.049 M33.776 100.757 C 33.664 100.869,32.634 101.092,31.486 101.253 C 27.858 101.761,26.468 102.147,24.305 103.247 C 23.923 103.441,23.355 103.600,23.043 103.600 C 22.282 103.600,19.200 105.263,19.200 105.674 C 19.200 105.853,18.829 106.000,18.376 106.000 C 17.923 106.000,17.645 106.150,17.758 106.332 C 17.871 106.515,17.342 106.909,16.582 107.207 C 15.822 107.505,15.200 107.891,15.200 108.064 C 15.200 108.238,14.654 108.662,13.987 109.007 C 13.320 109.352,12.880 109.806,13.011 110.017 C 13.141 110.228,13.065 110.400,12.842 110.400 C 12.619 110.400,11.978 110.858,11.418 111.418 C 10.858 111.978,10.400 112.332,10.400 112.204 C 10.400 112.076,9.978 112.383,9.461 112.886 C 8.841 113.490,8.671 113.900,8.961 114.094 C 9.230 114.274,9.124 114.390,8.687 114.394 C 8.296 114.397,7.857 114.707,7.713 115.082 C 7.460 115.742,6.738 116.723,5.700 117.816 C 5.425 118.106,5.200 118.536,5.200 118.771 C 5.200 119.007,5.020 119.200,4.800 119.200 C 4.580 119.200,4.400 119.434,4.400 119.720 C 4.400 120.456,3.459 122.393,3.100 122.397 C 2.935 122.399,2.800 122.760,2.800 123.200 C 2.800 123.640,2.620 124.000,2.400 124.000 C 2.180 124.000,2.000 124.540,2.000 125.200 C 2.000 125.860,1.820 126.400,1.600 126.400 C 1.380 126.400,1.238 126.535,1.285 126.700 C 1.333 126.865,1.041 128.194,0.639 129.654 C -0.005 131.985,-0.065 133.324,0.142 140.654 C 0.406 150.005,0.405 150.000,0.867 150.000 C 1.050 150.000,1.200 150.456,1.200 151.014 C 1.200 151.572,1.486 152.464,1.834 152.996 C 2.183 153.529,2.353 154.153,2.211 154.382 C 2.069 154.612,2.143 154.800,2.376 154.800 C 2.609 154.800,2.800 155.083,2.800 155.429 C 2.800 155.774,3.072 156.329,3.404 156.661 C 3.736 156.993,3.905 157.430,3.780 157.632 C 3.655 157.835,3.731 158.000,3.949 158.000 C 4.168 158.000,4.462 158.366,4.604 158.813 C 4.746 159.260,5.253 160.033,5.731 160.531 C 6.209 161.029,6.649 161.665,6.709 161.945 C 6.769 162.225,7.219 162.871,7.709 163.380 C 8.199 163.889,9.306 165.135,10.169 166.150 C 11.032 167.165,11.817 167.917,11.912 167.821 C 12.127 167.607,13.156 168.524,13.010 168.800 C 12.952 168.910,13.459 169.450,14.137 170.000 C 14.815 170.550,15.228 170.730,15.055 170.400 C 14.882 170.070,15.037 170.160,15.399 170.600 C 15.760 171.040,16.224 171.355,16.428 171.300 C 16.633 171.245,16.800 171.390,16.800 171.622 C 16.800 171.855,17.603 172.400,18.583 172.834 C 19.564 173.268,20.475 173.798,20.607 174.011 C 20.739 174.225,21.197 174.400,21.624 174.400 C 22.051 174.400,22.400 174.541,22.400 174.713 C 22.400 174.885,22.895 175.066,23.500 175.116 C 24.105 175.166,24.660 175.385,24.733 175.603 C 24.807 175.822,25.492 176.000,26.257 176.000 C 27.022 176.000,27.556 176.148,27.444 176.329 C 27.259 176.628,29.043 176.724,38.000 176.894 C 41.518 176.960,46.335 176.429,46.636 175.941 C 46.752 175.753,47.278 175.600,47.805 175.600 C 48.331 175.600,49.266 175.398,49.881 175.150 C 50.497 174.903,51.360 174.566,51.800 174.401 C 53.478 173.773,56.606 172.187,56.733 171.900 C 56.807 171.735,57.053 171.600,57.280 171.600 C 57.807 171.600,61.224 169.101,63.708 166.900 C 64.953 165.797,66.008 165.198,66.713 165.194 C 67.562 165.189,67.669 165.103,67.200 164.800 C 66.687 164.469,66.702 164.411,67.300 164.406 C 67.685 164.403,68.000 164.231,68.000 164.025 C 68.000 163.818,68.540 163.058,69.200 162.336 C 69.860 161.613,70.400 160.801,70.400 160.531 C 70.400 160.261,70.655 159.896,70.968 159.720 C 71.280 159.544,71.595 159.130,71.668 158.800 C 71.740 158.470,71.921 158.108,72.068 157.996 C 72.215 157.884,72.395 157.528,72.468 157.206 C 72.541 156.883,72.827 156.375,73.104 156.077 C 73.381 155.779,73.513 155.382,73.397 155.195 C 73.282 155.008,73.362 154.747,73.576 154.615 C 73.790 154.483,73.854 154.065,73.719 153.687 C 73.583 153.309,73.623 153.137,73.807 153.304 C 74.215 153.675,75.186 151.014,75.194 149.500 C 75.197 148.895,75.380 148.400,75.600 148.400 C 75.820 148.400,76.000 147.511,76.000 146.424 C 76.000 145.337,76.170 144.342,76.378 144.213 C 76.929 143.873,76.826 135.527,76.262 134.823 C 75.891 134.359,75.918 134.312,76.400 134.582 C 76.888 134.855,76.907 134.817,76.500 134.379 C 76.225 134.082,76.000 132.976,76.000 131.920 C 76.000 130.864,75.820 130.000,75.600 130.000 C 75.380 130.000,75.200 129.586,75.200 129.080 C 75.200 128.574,74.975 127.918,74.700 127.621 C 74.362 127.257,74.353 127.169,74.673 127.348 C 74.978 127.520,74.936 127.194,74.554 126.427 C 74.228 125.775,73.882 124.828,73.785 124.322 C 73.688 123.816,73.425 123.342,73.201 123.267 C 72.978 123.193,72.888 122.982,73.001 122.798 C 73.115 122.615,72.914 122.171,72.556 121.813 C 72.198 121.455,72.011 121.056,72.141 120.926 C 72.409 120.658,71.161 118.733,69.661 117.100 C 69.105 116.495,68.814 116.000,69.014 116.000 C 69.214 116.000,68.978 115.720,68.489 115.377 C 68.000 115.035,67.600 114.583,67.600 114.372 C 67.600 113.817,62.990 109.434,61.704 108.767 C 60.620 108.204,59.597 107.461,58.584 106.500 C 58.294 106.225,57.744 106.000,57.362 106.000 C 56.980 106.000,56.777 105.890,56.912 105.755 C 57.225 105.442,53.630 103.604,52.700 103.602 C 52.315 103.601,52.000 103.390,52.000 103.133 C 52.000 102.877,51.886 102.780,51.747 102.919 C 51.608 103.058,51.113 102.960,50.647 102.702 C 50.181 102.444,49.261 102.165,48.603 102.083 C 47.945 102.001,47.315 101.799,47.203 101.635 C 47.091 101.470,46.016 101.294,44.812 101.244 C 43.609 101.194,42.409 100.974,42.146 100.755 C 41.673 100.363,34.169 100.364,33.776 100.757 M225.356 138.709 C 219.970 143.865,210.464 147.861,203.000 148.108 L 200.200 148.200 200.200 214.400 L 200.200 280.600 269.700 280.498 C 316.092 280.430,339.200 280.529,339.200 280.798 C 339.200 281.019,339.380 281.200,339.600 281.200 C 339.820 281.200,340.000 280.857,340.000 280.438 C 340.000 279.531,341.608 276.400,342.074 276.400 C 342.253 276.400,342.400 276.040,342.400 275.600 C 342.400 275.160,342.580 274.800,342.800 274.800 C 343.020 274.800,343.200 274.530,343.200 274.200 C 343.200 273.870,343.380 273.600,343.600 273.600 C 343.820 273.600,344.000 273.240,344.000 272.800 C 344.000 272.360,344.180 272.000,344.400 272.000 C 344.620 272.000,344.800 271.640,344.800 271.200 C 344.800 270.760,344.980 270.400,345.200 270.400 C 345.420 270.400,345.600 270.166,345.600 269.880 C 345.600 269.144,346.541 267.207,346.900 267.203 C 347.065 267.201,347.200 266.840,347.200 266.400 C 347.200 265.960,347.388 265.600,347.618 265.600 C 347.847 265.600,347.998 265.375,347.953 265.100 C 347.846 264.442,348.641 262.546,349.158 262.226 C 349.382 262.088,349.471 261.728,349.355 261.428 C 349.240 261.127,349.338 260.762,349.573 260.617 C 349.808 260.472,350.000 260.012,350.000 259.596 C 350.000 259.180,350.225 258.696,350.500 258.520 C 350.775 258.344,351.000 257.840,351.000 257.400 C 351.000 256.960,351.198 256.636,351.441 256.680 C 351.703 256.728,351.806 256.364,351.694 255.780 C 351.586 255.213,351.695 254.800,351.953 254.800 C 352.199 254.800,352.400 254.438,352.400 253.995 C 352.400 253.552,352.580 252.832,352.800 252.395 C 353.020 251.958,353.380 251.242,353.600 250.805 C 353.820 250.368,354.000 249.648,354.000 249.205 C 354.000 248.762,354.239 248.400,354.531 248.400 C 354.893 248.400,355.006 248.019,354.885 247.200 C 354.780 246.480,354.887 246.000,355.155 246.000 C 355.400 246.000,355.600 245.460,355.600 244.800 C 355.600 244.070,355.808 243.600,356.131 243.600 C 356.493 243.600,356.606 243.219,356.485 242.400 C 356.380 241.680,356.487 241.200,356.755 241.200 C 357.000 241.200,357.200 240.660,357.200 240.000 C 357.200 239.282,357.409 238.800,357.720 238.800 C 358.078 238.800,358.189 238.365,358.076 237.400 C 357.976 236.543,358.085 236.000,358.356 236.000 C 358.600 236.000,358.800 235.370,358.800 234.600 C 358.800 233.830,358.980 233.200,359.200 233.200 C 359.420 233.200,359.600 232.570,359.600 231.800 C 359.600 231.030,359.780 230.400,360.000 230.400 C 360.220 230.400,360.400 229.770,360.400 229.000 C 360.400 228.230,360.580 227.600,360.800 227.600 C 361.020 227.600,361.200 226.880,361.200 226.000 C 361.200 225.120,361.380 224.400,361.600 224.400 C 361.820 224.400,362.000 223.680,362.000 222.800 C 362.000 221.920,362.180 221.200,362.400 221.200 C 362.620 221.200,362.800 220.390,362.800 219.400 C 362.800 218.410,362.970 217.600,363.179 217.600 C 363.387 217.600,363.528 216.870,363.493 215.977 C 363.453 214.984,363.638 214.224,363.968 214.020 C 364.330 213.796,364.418 213.327,364.236 212.601 C 364.055 211.881,364.183 211.180,364.616 210.520 C 365.025 209.896,365.174 209.150,365.016 208.520 C 364.860 207.899,365.003 207.150,365.390 206.559 C 365.777 205.969,365.920 205.220,365.764 204.599 C 365.607 203.972,365.754 203.225,366.155 202.613 C 366.567 201.983,366.762 200.947,366.699 199.716 C 366.627 198.316,366.740 197.829,367.121 197.907 C 367.526 197.990,367.581 197.481,367.370 195.614 C 367.147 193.647,367.210 193.171,367.717 192.976 C 368.211 192.787,368.291 192.301,368.113 190.578 C 367.930 188.803,368.008 188.372,368.551 188.163 C 369.113 187.948,369.173 187.516,368.947 185.315 C 368.742 183.315,368.808 182.642,369.236 182.378 C 369.637 182.130,369.756 181.339,369.666 179.521 C 369.518 176.550,369.592 176.671,368.229 177.189 C 366.790 177.736,357.710 177.715,355.306 177.159 C 350.208 175.981,349.483 175.749,346.862 174.457 C 345.906 173.986,344.960 173.600,344.758 173.600 C 344.060 173.600,337.788 169.227,335.607 167.219 C 333.216 165.019,333.136 164.963,333.413 165.700 C 333.634 166.287,332.013 168.093,329.320 170.257 C 328.264 171.105,327.265 172.008,327.101 172.263 C 326.937 172.517,325.992 173.237,325.002 173.863 C 324.012 174.488,323.201 175.135,323.201 175.300 C 323.200 175.465,323.012 175.600,322.783 175.600 C 322.554 175.600,321.980 175.960,321.508 176.400 C 321.036 176.840,320.413 177.200,320.125 177.200 C 319.836 177.200,319.600 177.380,319.600 177.600 C 319.600 177.820,319.240 178.000,318.800 178.000 C 318.360 178.000,318.000 178.201,318.000 178.447 C 318.000 178.696,317.647 178.801,317.199 178.684 C 316.759 178.569,316.490 178.621,316.601 178.801 C 316.817 179.151,312.991 181.200,312.121 181.200 C 311.835 181.200,311.600 181.401,311.600 181.647 C 311.600 181.905,311.187 182.014,310.620 181.906 C 310.036 181.794,309.672 181.897,309.720 182.159 C 309.764 182.402,309.416 182.606,308.946 182.613 C 308.476 182.620,307.803 182.865,307.451 183.158 C 307.099 183.450,306.551 183.590,306.234 183.469 C 305.918 183.347,305.431 183.521,305.154 183.856 C 304.841 184.232,304.258 184.389,303.624 184.266 C 303.018 184.148,302.322 184.317,301.918 184.679 C 301.387 185.156,300.980 185.202,300.073 184.885 C 299.108 184.549,298.799 184.609,298.259 185.240 C 297.351 186.300,293.662 186.129,294.263 185.055 C 294.412 184.788,294.294 184.807,293.979 185.100 C 293.682 185.375,293.116 185.600,292.720 185.600 C 292.324 185.600,292.000 185.780,292.000 186.000 C 292.000 186.243,290.259 186.400,287.576 186.400 C 284.326 186.400,283.229 186.277,283.439 185.937 C 283.651 185.593,282.992 185.542,280.891 185.737 C 278.577 185.952,277.940 185.882,277.415 185.358 C 276.956 184.898,276.390 184.788,275.426 184.969 C 274.473 185.147,273.896 185.039,273.456 184.599 C 273.048 184.191,272.485 184.064,271.820 184.231 C 271.102 184.411,270.738 184.303,270.568 183.860 C 270.394 183.408,270.004 183.299,269.164 183.467 C 268.256 183.649,268.000 183.555,268.000 183.042 C 268.000 182.541,267.763 182.444,267.004 182.635 C 266.315 182.808,265.937 182.700,265.778 182.287 C 265.646 181.943,265.238 181.770,264.819 181.879 C 264.418 181.984,263.969 181.874,263.822 181.635 C 263.674 181.396,263.203 181.200,262.776 181.200 C 262.349 181.200,262.000 181.020,262.000 180.800 C 262.000 180.580,261.640 180.400,261.200 180.400 C 260.760 180.400,260.400 180.220,260.400 180.000 C 260.400 179.780,260.040 179.600,259.600 179.600 C 259.160 179.600,258.800 179.420,258.800 179.200 C 258.800 178.980,258.440 178.800,258.000 178.800 C 257.560 178.800,257.200 178.620,257.200 178.400 C 257.200 178.180,256.964 178.000,256.675 178.000 C 256.387 178.000,255.764 177.640,255.292 177.200 C 254.820 176.760,254.196 176.400,253.905 176.400 C 253.614 176.400,253.117 176.040,252.800 175.600 C 252.483 175.160,252.020 174.800,251.771 174.800 C 251.522 174.800,250.797 174.305,250.159 173.700 C 249.522 173.095,248.100 171.942,247.000 171.137 C 244.821 169.543,241.564 166.214,240.016 164.000 C 239.478 163.230,238.751 162.330,238.400 162.000 C 238.049 161.670,237.329 160.770,236.800 160.000 C 236.271 159.230,235.740 158.510,235.619 158.400 C 235.232 158.047,233.958 155.823,233.729 155.100 C 233.607 154.715,233.369 154.400,233.200 154.400 C 232.859 154.400,232.285 152.853,232.364 152.146 C 232.391 151.896,232.130 151.582,231.782 151.448 C 231.434 151.315,231.249 151.045,231.370 150.848 C 231.492 150.652,231.325 150.270,231.000 150.000 C 230.675 149.730,230.500 149.362,230.611 149.182 C 230.722 149.002,230.630 148.742,230.407 148.604 C 230.183 148.466,230.000 147.913,230.000 147.376 C 230.000 146.839,229.820 146.400,229.600 146.400 C 229.380 146.400,229.200 145.849,229.200 145.176 C 229.200 144.463,229.033 144.056,228.800 144.200 C 228.562 144.347,228.400 143.871,228.400 143.024 C 228.400 142.241,228.220 141.600,228.000 141.600 C 227.780 141.600,227.600 140.970,227.600 140.200 C 227.600 139.430,227.433 138.800,227.229 138.800 C 227.025 138.800,226.800 138.512,226.729 138.159 C 226.627 137.650,226.344 137.763,225.356 138.709 M59.605 298.200 C 59.608 311.554,59.733 315.864,60.162 317.476 C 60.466 318.618,60.615 319.652,60.493 319.773 C 60.371 319.895,60.527 320.311,60.840 320.698 C 61.153 321.084,61.735 321.990,62.133 322.711 C 62.979 324.241,64.656 326.011,64.966 325.700 C 65.084 325.582,65.295 325.781,65.433 326.143 C 65.572 326.505,66.126 326.800,66.666 326.800 C 67.206 326.800,67.548 326.960,67.428 327.155 C 66.881 328.039,73.602 328.151,134.800 328.274 L 199.800 328.405 199.800 304.805 L 199.800 281.204 129.700 281.102 L 59.600 281.000 59.605 298.200 " stroke="none" fill="#fcc32c" fill-rule="evenodd"></path><path id="path2" d="M200.400 109.593 L 200.400 147.600 202.169 147.600 C 204.492 147.600,209.370 146.613,212.600 145.490 C 214.587 144.799,218.991 142.662,219.133 142.320 C 219.207 142.144,219.460 142.000,219.696 142.000 C 220.232 142.000,224.234 138.981,225.660 137.500 C 226.244 136.895,226.903 136.400,227.125 136.400 C 227.477 136.400,228.181 135.651,230.133 133.200 C 230.396 132.870,231.026 132.015,231.533 131.300 C 232.040 130.585,232.757 129.997,233.127 129.994 C 233.707 129.989,233.717 129.935,233.200 129.608 C 232.499 129.164,233.601 126.905,234.420 127.110 C 234.668 127.172,234.731 127.012,234.564 126.742 C 234.357 126.406,234.490 126.349,235.012 126.549 C 235.735 126.827,235.735 126.812,235.016 126.017 C 234.293 125.219,234.295 125.200,235.114 125.200 C 235.576 125.200,236.064 125.020,236.200 124.800 C 236.336 124.580,236.167 124.400,235.824 124.400 C 235.035 124.400,235.025 123.832,235.799 123.058 C 236.139 122.718,236.285 122.166,236.137 121.780 C 235.975 121.357,236.124 120.962,236.533 120.733 C 237.029 120.456,237.134 120.012,236.962 118.927 C 236.760 117.661,236.819 117.522,237.454 117.765 C 237.851 117.918,238.048 117.914,237.891 117.758 C 237.735 117.602,237.830 117.197,238.103 116.860 C 238.503 116.366,238.499 116.307,238.081 116.559 C 237.665 116.809,237.585 115.961,237.681 112.288 C 237.781 108.437,237.896 107.733,238.400 107.882 C 238.767 107.991,238.720 107.881,238.281 107.600 C 237.712 107.235,237.580 106.683,237.650 104.958 C 237.700 103.707,237.538 102.578,237.269 102.309 C 236.713 101.753,236.638 100.000,237.171 100.000 C 237.375 100.000,237.624 100.315,237.724 100.700 C 237.896 101.356,237.910 101.355,237.954 100.687 C 237.979 100.296,237.731 99.872,237.402 99.746 C 237.074 99.619,236.903 99.357,237.023 99.163 C 237.143 98.968,236.962 98.916,236.621 99.047 C 236.160 99.224,236.000 99.023,236.000 98.266 C 236.000 97.706,235.820 97.136,235.600 97.000 C 235.027 96.646,235.105 95.205,235.700 95.175 C 235.975 95.161,235.774 94.979,235.254 94.771 C 234.573 94.498,234.367 94.169,234.517 93.595 C 234.632 93.157,234.562 92.900,234.362 93.024 C 234.162 93.147,233.837 92.832,233.639 92.324 C 233.442 91.816,232.847 90.768,232.317 89.996 C 230.747 87.706,230.025 86.058,230.520 85.893 C 230.762 85.813,230.644 85.626,230.259 85.478 C 229.840 85.317,229.657 85.368,229.803 85.605 C 230.255 86.336,229.572 86.008,228.582 85.018 C 228.042 84.478,227.600 83.848,227.600 83.618 C 227.600 83.388,227.449 83.200,227.264 83.200 C 226.562 83.200,223.598 79.900,223.554 79.069 C 223.517 78.385,223.468 78.350,223.323 78.905 C 223.222 79.293,222.970 79.505,222.763 79.377 C 222.556 79.249,222.480 78.994,222.594 78.810 C 222.708 78.625,222.441 78.569,222.001 78.684 C 221.179 78.899,220.846 78.185,221.644 77.919 C 221.920 77.827,221.841 77.566,221.435 77.229 C 220.871 76.761,220.816 76.777,221.034 77.343 C 221.202 77.781,221.075 78.000,220.655 78.000 C 220.239 78.000,220.109 77.780,220.273 77.354 C 220.470 76.840,220.345 76.764,219.661 76.981 C 219.147 77.144,218.800 77.082,218.800 76.827 C 218.800 76.592,218.440 76.400,218.000 76.400 C 217.547 76.400,217.200 76.133,217.200 75.786 C 217.200 75.287,217.357 75.256,218.034 75.618 C 218.493 75.864,218.944 75.989,219.036 75.897 C 219.128 75.805,218.759 75.528,218.216 75.280 C 217.597 74.998,217.140 74.974,216.991 75.215 C 216.598 75.851,215.601 75.663,215.855 75.002 C 216.039 74.520,215.841 74.452,214.842 74.652 C 214.041 74.812,213.600 74.740,213.600 74.450 C 213.600 74.203,213.224 74.000,212.764 74.000 C 212.304 74.000,211.571 73.595,211.134 73.100 C 210.697 72.605,210.453 72.425,210.593 72.700 C 210.763 73.034,210.518 73.200,209.857 73.200 C 209.312 73.200,208.796 72.988,208.709 72.728 C 208.608 72.424,207.734 72.290,206.239 72.351 C 204.949 72.403,204.024 72.285,204.147 72.085 C 204.270 71.887,203.476 71.694,202.385 71.656 L 200.400 71.585 200.400 109.593 M357.600 100.755 C 357.600 100.918,356.745 101.094,355.700 101.148 C 354.655 101.201,353.629 101.415,353.420 101.622 C 353.211 101.830,352.255 102.000,351.296 102.000 C 350.236 102.000,349.650 102.157,349.800 102.400 C 349.947 102.639,349.463 102.800,348.600 102.800 C 347.737 102.800,347.253 102.961,347.400 103.200 C 347.611 103.542,347.094 103.693,346.145 103.566 C 346.004 103.547,345.779 103.682,345.645 103.866 C 345.250 104.405,343.663 105.200,342.982 105.200 C 342.636 105.200,342.464 105.380,342.600 105.600 C 342.736 105.820,342.593 106.000,342.283 106.000 C 341.973 106.000,341.154 106.540,340.463 107.200 C 339.772 107.860,338.944 108.400,338.622 108.400 C 337.962 108.400,336.000 110.223,336.000 110.836 C 336.000 111.055,335.687 111.182,335.304 111.118 C 334.893 111.048,334.444 111.369,334.209 111.900 C 333.990 112.395,333.673 112.800,333.505 112.800 C 333.337 112.800,333.200 112.972,333.200 113.182 C 333.200 113.639,331.316 115.583,331.092 115.358 C 331.005 115.272,330.679 115.696,330.367 116.301 C 330.055 116.905,329.573 117.640,329.296 117.932 C 329.019 118.225,328.891 118.624,329.012 118.819 C 329.132 119.014,328.864 119.403,328.416 119.683 C 327.967 119.963,327.600 120.479,327.600 120.830 C 327.600 121.180,327.467 121.599,327.305 121.762 C 327.143 121.924,327.008 122.359,327.005 122.728 C 327.002 123.098,326.752 123.347,326.449 123.283 C 326.091 123.207,325.965 123.421,326.088 123.895 C 326.193 124.296,326.046 124.841,325.762 125.107 C 325.477 125.373,325.314 125.953,325.399 126.395 C 325.484 126.838,325.384 127.200,325.177 127.200 C 324.970 127.200,324.821 127.335,324.847 127.500 C 325.001 128.472,324.749 130.016,324.465 129.840 C 324.281 129.726,324.091 130.751,324.043 132.117 C 323.995 133.482,323.785 134.660,323.578 134.733 C 323.067 134.914,323.088 144.283,323.600 144.600 C 323.820 144.736,324.000 145.747,324.000 146.847 C 324.000 148.079,324.154 148.752,324.400 148.600 C 324.626 148.460,324.826 148.841,324.861 149.476 C 324.943 150.992,324.995 151.213,325.592 152.600 C 325.876 153.260,326.163 154.225,326.231 154.743 C 326.299 155.262,326.635 155.997,326.977 156.375 C 327.320 156.753,327.600 157.274,327.600 157.531 C 327.600 157.789,327.735 158.001,327.900 158.003 C 328.275 158.007,329.200 159.958,329.200 160.746 C 329.200 161.069,329.312 161.221,329.450 161.084 C 329.828 160.705,331.137 162.499,330.911 163.087 C 330.800 163.378,331.003 163.600,331.381 163.600 C 331.747 163.600,331.936 163.780,331.800 164.000 C 331.664 164.220,331.844 164.400,332.200 164.400 C 332.556 164.400,332.742 164.571,332.613 164.779 C 332.484 164.988,332.730 165.090,333.160 165.008 C 333.662 164.911,334.736 165.553,336.171 166.809 C 340.160 170.300,344.468 173.017,348.200 174.397 C 348.640 174.560,349.450 174.883,350.000 175.116 C 352.358 176.115,358.070 176.966,362.000 176.905 C 369.432 176.790,373.115 176.586,372.938 176.300 C 372.836 176.135,373.303 176.000,373.976 176.000 C 374.649 176.000,375.200 175.820,375.200 175.600 C 375.200 175.380,375.593 175.200,376.074 175.200 C 377.128 175.200,380.147 173.787,380.817 172.980 C 381.081 172.661,381.501 172.403,381.749 172.406 C 381.997 172.409,381.930 172.587,381.600 172.800 C 381.223 173.044,381.181 173.190,381.486 173.194 C 381.753 173.197,382.163 172.842,382.397 172.405 C 382.632 171.967,383.255 171.501,383.783 171.369 C 384.310 171.236,384.839 170.874,384.959 170.564 C 385.078 170.254,385.451 170.000,385.787 170.000 C 386.124 170.000,386.400 169.820,386.400 169.600 C 386.400 169.380,386.664 169.200,386.987 169.200 C 387.347 169.200,387.485 168.966,387.343 168.595 C 387.171 168.146,387.293 168.061,387.821 168.263 C 388.308 168.450,388.440 168.389,388.242 168.068 C 388.081 167.807,388.172 167.600,388.448 167.600 C 389.013 167.600,391.600 164.900,391.600 164.310 C 391.600 164.096,392.095 163.442,392.700 162.857 C 393.305 162.271,393.849 161.557,393.909 161.270 C 393.968 160.983,394.354 160.387,394.765 159.946 C 395.176 159.505,395.734 158.352,396.005 157.383 C 396.324 156.242,396.780 155.533,397.302 155.368 C 397.939 155.165,397.991 155.040,397.553 154.762 C 397.154 154.510,397.139 154.411,397.500 154.406 C 397.775 154.403,398.000 153.939,398.000 153.376 C 398.000 152.796,398.173 152.460,398.400 152.600 C 398.632 152.744,398.800 152.349,398.800 151.657 C 398.800 151.002,399.025 150.392,399.300 150.300 C 400.059 150.047,399.995 128.007,399.235 127.997 C 398.841 127.992,398.000 125.898,398.000 124.920 C 398.000 124.414,397.820 124.000,397.600 124.000 C 397.380 124.000,397.200 123.640,397.200 123.200 C 397.200 122.760,397.065 122.399,396.900 122.397 C 396.520 122.393,395.602 120.442,395.594 119.620 C 395.588 119.074,395.542 119.071,395.200 119.600 C 394.832 120.169,394.575 119.423,394.753 118.300 C 394.779 118.135,394.620 118.000,394.400 118.000 C 394.180 118.000,394.000 117.730,394.000 117.400 C 394.000 117.070,393.820 116.800,393.600 116.800 C 393.380 116.800,393.200 116.519,393.200 116.176 C 393.200 115.833,393.040 115.652,392.844 115.773 C 392.648 115.894,392.190 115.365,391.825 114.596 C 391.461 113.828,391.021 113.200,390.849 113.200 C 390.676 113.200,390.298 112.756,390.007 112.214 C 389.717 111.671,389.345 111.310,389.182 111.411 C 389.018 111.513,388.780 111.325,388.653 110.994 C 388.526 110.664,387.967 110.186,387.411 109.932 C 386.855 109.679,386.400 109.211,386.400 108.893 C 386.400 108.537,386.164 108.405,385.785 108.550 C 385.435 108.685,385.072 108.531,384.942 108.193 C 384.817 107.867,384.440 107.600,384.104 107.600 C 383.768 107.600,383.203 107.285,382.847 106.899 C 381.689 105.645,380.591 104.891,380.954 105.600 C 381.123 105.930,380.903 105.795,380.466 105.300 C 380.029 104.805,379.422 104.400,379.116 104.400 C 378.810 104.400,378.318 104.175,378.021 103.900 C 377.684 103.587,377.579 103.573,377.742 103.863 C 377.938 104.213,377.758 104.213,377.004 103.863 C 376.455 103.608,376.005 103.265,376.003 103.100 C 376.001 102.935,375.640 102.800,375.200 102.800 C 374.760 102.800,374.400 102.620,374.400 102.400 C 374.400 102.180,373.579 102.000,372.576 102.000 C 371.433 102.000,370.847 101.847,371.006 101.590 C 371.145 101.365,371.111 101.206,370.930 101.237 C 369.843 101.426,366.386 101.147,366.548 100.883 C 366.656 100.709,364.687 100.543,362.172 100.513 C 359.657 100.484,357.600 100.593,357.600 100.755 M200.400 304.190 L 200.400 327.181 265.067 327.291 C 316.367 327.377,329.768 327.503,329.900 327.900 C 329.992 328.175,330.262 328.400,330.500 328.400 C 330.738 328.400,330.815 328.282,330.670 328.137 C 330.254 327.720,331.219 326.800,332.073 326.800 C 332.499 326.800,332.736 326.980,332.600 327.200 C 332.464 327.420,332.556 327.600,332.803 327.600 C 333.072 327.600,333.151 327.277,333.000 326.800 C 332.818 326.227,332.928 326.000,333.388 326.000 C 334.195 326.000,337.600 322.537,337.600 321.717 C 337.600 321.310,337.859 321.174,338.376 321.310 C 339.054 321.487,339.092 321.414,338.676 320.734 C 338.292 320.106,338.316 319.890,338.800 319.614 C 339.325 319.316,339.375 316.891,339.200 300.336 L 339.000 281.400 269.700 281.299 L 200.400 281.198 200.400 304.190 " stroke="none" fill="#fca43b" fill-rule="evenodd"></path><path id="path3" d="M173.514 137.700 C 174.192 138.195,175.773 139.389,177.028 140.353 C 182.358 144.448,189.688 147.327,196.117 147.852 C 197.923 147.999,199.532 148.318,199.694 148.560 C 199.856 148.802,199.991 178.565,199.994 214.700 L 200.000 280.400 130.300 280.463 C 91.965 280.498,60.377 280.518,60.104 280.508 C 59.832 280.498,59.707 280.650,59.828 280.845 C 60.273 281.565,199.880 281.288,200.157 280.567 C 200.475 279.740,200.475 149.060,200.157 148.233 C 199.985 147.783,199.384 147.600,198.081 147.600 C 194.065 147.600,187.699 145.888,183.200 143.597 C 182.210 143.093,180.996 142.483,180.503 142.240 C 180.010 141.998,179.605 141.665,179.603 141.500 C 179.601 141.335,179.330 141.200,179.000 141.200 C 178.670 141.200,178.400 141.059,178.400 140.886 C 178.400 140.714,177.905 140.270,177.300 139.899 C 176.695 139.529,175.591 138.680,174.846 138.013 C 174.101 137.346,173.219 136.800,172.887 136.800 C 172.533 136.800,172.793 137.173,173.514 137.700 M226.800 137.957 C 226.800 138.374,227.041 138.807,227.336 138.920 C 227.684 139.054,227.809 139.560,227.691 140.363 C 227.581 141.114,227.684 141.600,227.955 141.600 C 228.200 141.600,228.400 140.970,228.400 140.200 C 228.400 139.430,228.220 138.800,228.000 138.800 C 227.780 138.800,227.600 138.440,227.600 138.000 C 227.600 137.560,227.420 137.200,227.200 137.200 C 226.980 137.200,226.800 137.541,226.800 137.957 M228.400 143.224 C 228.400 143.937,228.567 144.344,228.800 144.200 C 229.020 144.064,229.200 143.513,229.200 142.976 C 229.200 142.439,229.020 142.000,228.800 142.000 C 228.580 142.000,228.400 142.551,228.400 143.224 M229.467 144.267 C 229.048 144.685,229.155 146.400,229.600 146.400 C 229.820 146.400,230.000 146.839,230.000 147.376 C 230.000 147.913,230.183 148.466,230.407 148.604 C 230.630 148.742,230.722 149.002,230.611 149.182 C 230.500 149.362,230.675 149.730,231.000 150.000 C 231.325 150.270,231.492 150.652,231.370 150.848 C 231.249 151.045,231.434 151.315,231.782 151.448 C 232.130 151.582,232.391 151.896,232.364 152.146 C 232.285 152.853,232.859 154.400,233.200 154.400 C 233.369 154.400,233.607 154.715,233.729 155.100 C 233.958 155.823,235.232 158.047,235.619 158.400 C 235.740 158.510,236.271 159.230,236.800 160.000 C 237.329 160.770,238.049 161.670,238.400 162.000 C 238.751 162.330,239.478 163.230,240.016 164.000 C 241.564 166.214,244.821 169.543,247.000 171.137 C 248.100 171.942,249.522 173.095,250.159 173.700 C 250.797 174.305,251.522 174.800,251.771 174.800 C 252.020 174.800,252.483 175.160,252.800 175.600 C 253.117 176.040,253.614 176.400,253.905 176.400 C 254.196 176.400,254.820 176.760,255.292 177.200 C 255.764 177.640,256.387 178.000,256.675 178.000 C 256.964 178.000,257.200 178.180,257.200 178.400 C 257.200 178.620,257.560 178.800,258.000 178.800 C 258.440 178.800,258.800 178.980,258.800 179.200 C 258.800 179.420,259.160 179.600,259.600 179.600 C 260.040 179.600,260.400 179.780,260.400 180.000 C 260.400 180.220,260.760 180.400,261.200 180.400 C 261.640 180.400,262.000 180.580,262.000 180.800 C 262.000 181.020,262.272 181.200,262.605 181.200 C 262.938 181.200,263.566 181.421,263.999 181.692 C 264.641 182.093,264.899 182.072,265.394 181.577 C 265.937 181.035,265.910 180.963,265.145 180.906 C 264.056 180.824,256.059 176.811,254.643 175.635 C 254.289 175.342,254.000 175.242,254.000 175.412 C 254.000 175.583,253.664 175.335,253.253 174.861 C 252.842 174.388,252.340 174.000,252.137 174.000 C 251.934 174.000,250.972 173.280,250.000 172.400 C 249.028 171.520,248.087 170.800,247.910 170.800 C 247.423 170.800,241.600 164.878,241.600 164.383 C 241.600 164.146,241.433 164.056,241.229 164.182 C 241.025 164.308,240.728 164.005,240.571 163.507 C 240.413 163.010,239.995 162.383,239.642 162.114 C 239.289 161.845,239.136 161.620,239.303 161.613 C 239.562 161.602,238.930 160.787,237.000 158.644 C 236.780 158.400,236.345 157.705,236.032 157.100 C 235.720 156.495,235.315 156.000,235.132 156.000 C 234.950 156.000,234.800 155.655,234.800 155.233 C 234.800 154.812,234.663 154.407,234.496 154.333 C 234.329 154.260,233.450 152.670,232.542 150.800 C 230.072 145.712,229.637 144.663,229.852 144.316 C 230.090 143.931,229.835 143.899,229.467 144.267 M63.708 166.900 C 61.224 169.101,57.807 171.600,57.280 171.600 C 57.053 171.600,56.807 171.735,56.733 171.900 C 56.606 172.187,53.478 173.773,51.800 174.401 C 51.360 174.566,50.497 174.903,49.881 175.150 C 49.266 175.398,48.331 175.600,47.805 175.600 C 47.278 175.600,46.752 175.753,46.636 175.941 C 46.120 176.777,38.185 177.187,32.400 176.676 L 29.400 176.411 32.000 176.981 C 38.503 178.406,49.324 176.809,55.014 173.586 C 55.776 173.154,57.075 172.425,57.900 171.967 C 59.604 171.020,61.890 169.276,64.134 167.212 C 64.978 166.435,65.968 165.678,66.334 165.528 C 66.945 165.279,66.943 165.254,66.313 165.228 C 65.936 165.213,64.763 165.965,63.708 166.900 M332.808 165.995 C 332.494 166.189,332.067 166.241,331.857 166.112 C 331.648 165.982,331.596 166.070,331.742 166.306 C 332.069 166.835,330.880 168.096,330.358 167.774 C 330.150 167.646,330.006 167.689,330.037 167.870 C 330.173 168.649,329.968 169.200,329.543 169.200 C 329.292 169.200,328.604 169.705,328.014 170.323 C 327.424 170.940,326.324 171.876,325.571 172.404 C 324.817 172.931,323.909 173.686,323.553 174.081 C 323.197 174.476,322.640 174.800,322.315 174.800 C 321.990 174.800,321.392 175.166,320.987 175.614 C 320.582 176.062,320.029 176.343,319.758 176.239 C 319.488 176.135,319.163 176.321,319.036 176.651 C 318.909 176.981,318.624 177.139,318.403 177.002 C 318.181 176.865,318.000 176.909,318.000 177.099 C 318.000 177.410,313.356 179.915,312.248 180.202 C 310.636 180.619,310.000 180.955,310.000 181.391 C 310.000 181.700,309.638 181.820,309.047 181.707 C 308.523 181.607,307.972 181.722,307.823 181.962 C 307.675 182.203,307.124 182.400,306.600 182.400 C 306.076 182.400,305.536 182.580,305.400 182.800 C 305.264 183.020,304.608 183.200,303.943 183.200 C 303.153 183.200,302.791 183.374,302.900 183.700 C 303.141 184.424,304.335 184.552,305.081 183.933 C 305.434 183.640,306.028 183.452,306.400 183.515 C 306.773 183.578,307.292 183.371,307.553 183.056 C 307.815 182.741,308.362 182.570,308.770 182.676 C 309.177 182.783,309.631 182.674,309.778 182.435 C 309.926 182.196,310.397 182.000,310.824 182.000 C 311.251 182.000,311.600 181.820,311.600 181.600 C 311.600 181.380,311.835 181.200,312.121 181.200 C 312.991 181.200,316.817 179.151,316.601 178.801 C 316.490 178.621,316.759 178.569,317.199 178.684 C 317.647 178.801,318.000 178.696,318.000 178.447 C 318.000 178.201,318.360 178.000,318.800 178.000 C 319.240 178.000,319.600 177.820,319.600 177.600 C 319.600 177.380,319.836 177.200,320.125 177.200 C 320.413 177.200,321.036 176.840,321.508 176.400 C 321.980 175.960,322.554 175.600,322.783 175.600 C 323.012 175.600,323.200 175.459,323.200 175.286 C 323.200 175.114,323.772 174.634,324.472 174.221 C 325.171 173.808,326.231 173.004,326.827 172.435 C 327.424 171.866,328.787 170.694,329.856 169.830 C 332.657 167.569,334.830 164.746,332.808 165.995 M369.679 178.869 C 369.845 181.713,370.638 181.818,370.752 179.010 C 370.824 177.212,370.722 176.800,370.200 176.800 C 369.678 176.800,369.581 177.187,369.679 178.869 M265.689 182.066 C 265.895 182.686,267.152 182.790,267.300 182.200 C 267.355 181.980,266.975 181.740,266.455 181.666 C 265.808 181.575,265.567 181.700,265.689 182.066 M369.300 182.198 C 368.532 183.071,368.791 187.500,369.582 187.011 C 369.854 186.843,370.185 181.582,369.921 181.615 C 369.855 181.624,369.575 181.886,369.300 182.198 M268.000 183.000 C 268.000 183.538,268.243 183.647,269.085 183.486 C 269.789 183.351,270.326 183.492,270.615 183.888 C 270.909 184.291,271.357 184.404,271.930 184.222 C 273.187 183.823,272.999 183.320,271.500 183.072 C 270.785 182.954,269.705 182.733,269.100 182.582 C 268.217 182.361,268.000 182.444,268.000 183.000 M273.200 184.373 C 273.200 184.978,274.707 185.278,275.532 184.836 C 275.952 184.612,276.408 184.542,276.547 184.681 C 276.686 184.820,276.800 184.723,276.800 184.467 C 276.800 184.180,276.105 184.000,275.000 184.000 C 274.010 184.000,273.200 184.168,273.200 184.373 M299.909 184.702 C 301.125 185.307,301.266 185.306,301.895 184.677 C 302.530 184.041,302.451 184.002,300.586 184.026 L 298.600 184.051 299.909 184.702 M277.200 185.173 C 277.200 185.378,277.552 185.658,277.983 185.794 C 279.001 186.118,281.658 185.618,281.373 185.156 C 281.079 184.681,277.200 184.697,277.200 185.173 M294.212 185.180 C 293.908 185.672,296.479 186.156,297.565 185.811 C 298.024 185.665,298.400 185.378,298.400 185.173 C 298.400 184.682,294.516 184.688,294.212 185.180 M283.400 186.000 C 283.241 186.257,284.729 186.400,287.576 186.400 C 290.259 186.400,292.000 186.243,292.000 186.000 C 292.000 185.759,290.341 185.600,287.824 185.600 C 285.471 185.600,283.539 185.775,283.400 186.000 M368.267 188.267 C 367.933 188.600,367.918 190.920,368.243 191.767 C 368.711 192.988,369.064 192.380,369.152 190.200 C 369.234 188.182,368.957 187.577,368.267 188.267 M367.467 193.067 C 367.005 193.528,367.177 195.815,367.730 196.571 C 368.195 197.207,368.270 197.022,368.350 195.048 C 368.434 192.987,368.160 192.374,367.467 193.067 M366.541 198.210 C 366.401 198.573,366.466 199.453,366.685 200.165 C 367.010 201.224,366.947 201.625,366.341 202.374 C 365.447 203.477,365.402 204.385,366.187 205.424 C 366.728 206.139,366.776 206.036,366.787 204.124 C 366.794 202.982,366.980 201.936,367.200 201.800 C 367.722 201.477,367.720 198.121,367.197 197.798 C 366.976 197.661,366.680 197.847,366.541 198.210 M365.204 206.792 C 364.749 207.642,365.055 209.600,365.643 209.600 C 365.840 209.600,366.000 208.790,366.000 207.800 C 366.000 205.814,365.838 205.608,365.204 206.792 M364.490 210.692 C 364.200 211.200,364.093 212.030,364.241 212.621 C 364.624 214.148,365.280 213.210,365.127 211.353 C 365.006 209.876,364.975 209.844,364.490 210.692 M363.484 214.800 C 363.229 215.775,363.563 217.200,364.047 217.200 C 364.241 217.200,364.400 216.480,364.400 215.600 C 364.400 213.921,363.842 213.433,363.484 214.800 M362.800 219.224 C 362.800 220.204,362.958 220.749,363.200 220.600 C 363.420 220.464,363.600 219.733,363.600 218.976 C 363.600 218.219,363.420 217.600,363.200 217.600 C 362.980 217.600,362.800 218.331,362.800 219.224 M362.065 222.668 C 362.144 223.578,362.003 224.199,361.696 224.301 C 361.414 224.395,361.200 225.143,361.200 226.033 C 361.200 226.895,361.020 227.600,360.800 227.600 C 360.580 227.600,360.400 228.140,360.400 228.800 C 360.400 229.460,360.580 230.000,360.800 230.000 C 361.020 230.000,361.200 229.471,361.200 228.824 C 361.200 228.177,361.380 227.536,361.600 227.400 C 361.820 227.264,362.000 226.544,362.000 225.800 C 362.000 225.056,362.180 224.336,362.400 224.200 C 362.940 223.866,362.912 221.200,362.369 221.200 C 362.117 221.200,361.991 221.808,362.065 222.668 M359.600 231.800 C 359.600 232.570,359.420 233.200,359.200 233.200 C 358.980 233.200,358.800 233.740,358.800 234.400 C 358.800 235.060,358.980 235.600,359.200 235.600 C 359.420 235.600,359.600 235.071,359.600 234.424 C 359.600 233.777,359.780 233.136,360.000 233.000 C 360.220 232.864,360.400 232.223,360.400 231.576 C 360.400 230.929,360.220 230.400,360.000 230.400 C 359.780 230.400,359.600 231.030,359.600 231.800 M358.076 237.400 C 358.189 238.365,358.078 238.800,357.720 238.800 C 357.409 238.800,357.200 239.282,357.200 240.000 C 357.200 240.660,357.020 241.200,356.800 241.200 C 356.580 241.200,356.400 241.650,356.400 242.200 C 356.400 242.813,356.628 243.200,356.987 243.200 C 357.347 243.200,357.485 242.966,357.343 242.595 C 357.215 242.262,357.285 241.767,357.497 241.495 C 358.482 240.236,359.257 236.000,358.503 236.000 C 358.064 236.000,357.954 236.359,358.076 237.400 M355.600 244.800 C 355.600 245.460,355.420 246.000,355.200 246.000 C 354.980 246.000,354.800 246.450,354.800 247.000 C 354.800 248.591,355.469 248.163,356.162 246.129 C 356.949 243.821,356.952 243.600,356.200 243.600 C 355.800 243.600,355.600 244.000,355.600 244.800 M354.000 249.205 C 354.000 249.983,353.858 250.369,352.862 252.295 C 352.608 252.787,352.400 253.552,352.400 253.995 C 352.400 254.438,352.220 254.800,352.000 254.800 C 351.780 254.800,351.600 255.149,351.600 255.576 C 351.600 256.003,351.404 256.474,351.165 256.622 C 350.926 256.769,350.816 257.218,350.921 257.619 C 351.026 258.021,350.862 258.444,350.556 258.562 C 350.250 258.679,350.000 259.130,350.000 259.564 C 350.000 259.998,349.808 260.472,349.573 260.617 C 349.338 260.762,349.240 261.127,349.355 261.428 C 349.471 261.728,349.382 262.088,349.158 262.226 C 348.641 262.546,347.846 264.442,347.953 265.100 C 347.998 265.375,347.847 265.600,347.618 265.600 C 347.388 265.600,347.200 265.960,347.200 266.400 C 347.200 266.840,347.065 267.201,346.900 267.203 C 346.541 267.207,345.600 269.144,345.600 269.880 C 345.600 270.166,345.420 270.400,345.200 270.400 C 344.980 270.400,344.800 270.760,344.800 271.200 C 344.800 271.640,344.620 272.000,344.400 272.000 C 344.180 272.000,344.000 272.360,344.000 272.800 C 344.000 273.240,343.820 273.600,343.600 273.600 C 343.380 273.600,343.200 273.870,343.200 274.200 C 343.200 274.530,343.020 274.800,342.800 274.800 C 342.580 274.800,342.400 275.160,342.400 275.600 C 342.400 276.040,342.253 276.400,342.074 276.400 C 341.651 276.400,340.000 279.493,340.000 280.287 C 340.000 280.783,340.112 280.805,340.596 280.404 C 340.923 280.132,341.093 279.750,340.972 279.555 C 340.851 279.360,340.943 279.200,341.176 279.200 C 341.409 279.200,341.600 278.840,341.600 278.400 C 341.600 277.960,341.780 277.600,342.000 277.600 C 342.220 277.600,342.400 277.364,342.400 277.075 C 342.400 276.787,342.760 276.164,343.200 275.692 C 343.640 275.220,344.000 274.646,344.000 274.417 C 344.000 274.188,344.180 274.000,344.400 274.000 C 344.620 274.000,344.800 273.565,344.800 273.033 C 344.800 272.502,344.937 272.007,345.104 271.933 C 345.594 271.718,348.807 265.068,348.803 264.276 C 348.801 263.878,348.947 263.644,349.127 263.755 C 349.307 263.866,349.683 263.292,349.961 262.479 C 350.239 261.665,350.823 260.214,351.258 259.252 C 351.693 258.291,351.959 257.271,351.850 256.985 C 351.740 256.700,351.909 256.367,352.225 256.246 C 352.541 256.124,352.800 255.649,352.800 255.189 C 352.800 254.729,352.943 254.441,353.117 254.549 C 353.291 254.656,353.462 254.368,353.497 253.908 C 353.532 253.448,353.704 252.966,353.880 252.836 C 354.056 252.706,354.263 252.150,354.341 251.600 C 354.418 251.050,354.643 250.297,354.841 249.926 C 355.366 248.941,355.281 248.400,354.600 248.400 C 354.265 248.400,354.000 248.756,354.000 249.205 " stroke="none" fill="#fcd44b" fill-rule="evenodd"></path><path id="path4" d="M199.600 109.226 C 199.600 152.209,199.253 148.592,203.334 148.197 C 211.740 147.384,220.400 143.591,225.647 138.425 C 226.443 137.641,227.343 136.943,227.647 136.874 C 228.233 136.740,230.000 135.014,230.000 134.575 C 230.000 134.251,232.435 131.101,232.978 130.722 C 233.197 130.569,233.232 130.299,233.054 130.122 C 232.735 129.804,232.360 130.183,230.400 132.805 C 228.543 135.289,227.531 136.400,227.125 136.400 C 226.903 136.400,226.244 136.895,225.660 137.500 C 224.234 138.981,220.232 142.000,219.696 142.000 C 219.460 142.000,219.207 142.144,219.133 142.320 C 218.991 142.662,214.587 144.799,212.600 145.490 C 209.370 146.613,204.492 147.600,202.169 147.600 L 200.400 147.600 200.400 109.600 C 200.400 84.533,200.264 71.600,200.000 71.600 C 199.736 71.600,199.600 84.409,199.600 109.226 M204.210 71.983 C 204.046 72.249,204.607 72.400,205.753 72.400 C 208.096 72.400,208.482 71.774,206.212 71.657 C 205.253 71.607,204.352 71.754,204.210 71.983 M208.800 72.794 C 208.800 73.270,210.662 73.348,210.949 72.883 C 211.056 72.709,210.617 72.526,209.972 72.477 C 209.328 72.427,208.800 72.570,208.800 72.794 M211.600 73.600 C 211.600 73.820,211.971 74.000,212.424 74.000 C 212.877 74.000,213.136 73.820,213.000 73.600 C 212.864 73.380,212.493 73.200,212.176 73.200 C 211.859 73.200,211.600 73.380,211.600 73.600 M213.600 74.400 C 213.600 74.620,213.960 74.800,214.400 74.800 C 214.840 74.800,215.200 74.620,215.200 74.400 C 215.200 74.180,214.840 74.000,214.400 74.000 C 213.960 74.000,213.600 74.180,213.600 74.400 M215.761 75.263 C 215.565 75.580,215.746 75.655,216.337 75.500 C 216.919 75.348,217.200 75.458,217.200 75.837 C 217.200 76.147,217.545 76.400,217.967 76.400 C 218.388 76.400,218.804 76.612,218.890 76.871 C 218.981 77.144,219.263 77.208,219.561 77.024 C 219.920 76.802,219.569 76.419,218.397 75.753 C 216.494 74.673,216.164 74.611,215.761 75.263 M220.277 77.344 C 220.114 77.768,220.232 78.000,220.613 78.000 C 220.936 78.000,221.201 78.135,221.203 78.300 C 221.205 78.465,221.655 78.808,222.203 79.062 C 223.022 79.442,223.200 79.420,223.200 78.939 C 223.200 78.616,223.020 78.464,222.800 78.600 C 222.580 78.736,222.400 78.657,222.400 78.424 C 222.400 78.191,222.195 78.000,221.944 78.000 C 221.693 78.000,221.272 77.705,221.008 77.344 C 220.564 76.736,220.510 76.736,220.277 77.344 M223.600 79.569 C 223.600 80.027,226.802 83.200,227.264 83.200 C 227.449 83.200,227.604 83.425,227.609 83.700 C 227.614 83.975,228.334 84.819,229.209 85.576 C 230.084 86.333,230.800 87.124,230.800 87.335 C 230.800 87.545,231.398 88.636,232.129 89.759 C 232.860 90.881,233.768 92.475,234.148 93.300 C 234.527 94.125,235.009 94.800,235.219 94.800 C 235.785 94.800,235.680 94.165,235.024 93.620 C 234.707 93.357,234.546 92.885,234.667 92.571 C 234.787 92.257,234.686 92.000,234.443 92.000 C 234.199 92.000,234.000 91.722,234.000 91.383 C 234.000 91.044,233.640 90.380,233.200 89.908 C 232.760 89.436,232.400 88.832,232.400 88.567 C 232.400 88.302,232.119 87.978,231.775 87.846 C 231.431 87.714,231.256 87.432,231.387 87.220 C 231.518 87.009,231.164 86.533,230.600 86.163 C 230.036 85.794,229.661 85.406,229.766 85.301 C 229.936 85.131,224.073 79.200,223.736 79.200 C 223.661 79.200,223.600 79.366,223.600 79.569 M235.200 95.976 C 235.200 96.403,235.380 96.864,235.600 97.000 C 235.820 97.136,236.000 97.667,236.000 98.181 C 236.000 98.694,236.253 99.211,236.562 99.330 C 237.210 99.579,237.187 98.287,236.520 96.996 C 236.293 96.558,236.189 95.975,236.287 95.700 C 236.386 95.425,236.182 95.200,235.833 95.200 C 235.473 95.200,235.200 95.535,235.200 95.976 M236.813 100.900 C 236.820 101.395,237.100 102.160,237.436 102.600 C 238.020 103.365,238.038 103.348,237.856 102.200 C 237.751 101.540,237.651 100.775,237.633 100.500 C 237.574 99.599,236.800 99.977,236.813 100.900 M237.713 110.278 C 237.688 115.374,237.786 116.772,238.126 116.178 C 238.717 115.146,238.808 108.002,238.230 107.994 C 237.938 107.990,237.943 107.894,238.246 107.694 C 238.643 107.432,238.684 106.780,238.463 104.300 C 238.428 103.915,238.253 103.600,238.073 103.600 C 237.893 103.600,237.731 106.605,237.713 110.278 M237.292 117.535 C 237.012 117.712,236.842 118.245,236.915 118.718 C 237.057 119.653,237.561 120.360,237.663 119.767 C 237.747 119.272,237.891 117.198,237.840 117.206 C 237.818 117.209,237.571 117.357,237.292 117.535 M236.442 120.770 C 236.121 120.971,235.993 121.405,236.141 121.789 C 236.285 122.164,236.134 122.723,235.799 123.058 C 235.033 123.824,235.033 124.400,235.800 124.400 C 236.130 124.400,236.400 124.076,236.400 123.680 C 236.400 123.284,236.595 122.765,236.834 122.526 C 237.485 121.875,237.141 120.332,236.442 120.770 M234.661 125.621 C 234.956 125.916,234.739 126.408,233.941 127.263 C 232.458 128.851,232.346 130.166,233.812 128.789 C 234.368 128.266,234.740 127.620,234.637 127.352 C 234.534 127.085,234.709 126.767,235.025 126.646 C 235.829 126.337,235.746 125.200,234.920 125.200 C 234.444 125.200,234.366 125.326,234.661 125.621 M333.600 165.058 C 333.600 166.001,343.527 173.600,344.758 173.600 C 344.960 173.600,345.906 173.986,346.862 174.457 C 349.483 175.749,350.208 175.981,355.306 177.159 C 358.084 177.802,366.584 177.687,369.000 176.975 L 371.000 176.386 368.000 176.666 C 362.020 177.224,357.862 176.994,352.200 175.794 C 350.620 175.459,348.931 174.797,345.085 173.005 C 342.882 171.979,336.780 167.738,336.233 166.854 C 335.848 166.230,333.600 164.697,333.600 165.058 M200.011 281.180 C 199.731 281.702,199.628 289.597,199.697 305.080 L 199.800 328.200 264.900 328.301 C 301.079 328.357,330.000 328.249,330.000 328.058 C 330.000 327.294,322.599 327.200,262.741 327.200 L 200.400 327.200 200.400 304.199 L 200.400 281.198 269.700 281.299 L 339.000 281.400 339.200 300.200 C 339.335 312.930,339.529 318.806,339.800 318.400 C 340.544 317.284,340.562 280.763,339.819 281.048 C 339.478 281.179,339.200 281.086,339.200 280.843 C 339.200 279.913,200.509 280.249,200.011 281.180 M338.830 319.581 C 338.529 319.767,338.394 320.207,338.529 320.560 C 338.686 320.968,338.562 321.200,338.187 321.200 C 337.864 321.200,337.600 321.453,337.600 321.763 C 337.600 322.534,334.177 326.000,333.415 326.000 C 333.077 326.000,332.800 326.180,332.800 326.400 C 332.800 326.620,332.462 326.800,332.049 326.800 C 331.636 326.800,331.070 327.074,330.792 327.409 C 329.637 328.802,334.623 326.391,336.503 324.648 C 338.474 322.822,340.410 318.605,338.830 319.581 " stroke="none" fill="#fcb434" fill-rule="evenodd"></path></g></svg>